<?xml version="1.0" encoding="UTF-8"?>
<svg version="1.1" xmlns="http://www.w3.org/2000/svg" width="512" height="512">
<path d="M0 0 C3.92038403 0.61216372 7.84278636 1.21114529 11.76489353 1.81215 C18.34237269 2.8221379 24.91819861 3.84237267 31.49310398 4.86897373 C39.06024341 6.05037903 46.62972808 7.21568961 54.20068049 8.3723886 C61.53356415 9.49307374 68.86468833 10.6248909 76.19507694 11.76177311 C79.29307058 12.24207172 82.39160376 12.71863029 85.49065495 13.1920557 C89.14645179 13.75106993 92.80058919 14.31994402 96.4537344 14.89602375 C98.40982104 15.20223394 100.36736948 15.49906175 102.32496738 15.79545689 C118.79859183 18.41975075 132.69310152 22.84020275 143.81683445 35.86116123 C150.04537178 44.61739623 152.96513157 53.36330061 153.06683445 63.96272373 C153.0749062 64.76408756 153.08297794 65.56545139 153.09129429 66.39109898 C153.10509914 68.08389742 153.11583733 69.77672328 153.12371922 71.46955967 C153.13525184 73.19587994 153.15572402 74.9221642 153.18524265 76.64827061 C153.22799098 79.14916687 153.24409603 81.64900715 153.25433445 84.15022373 C153.27184254 84.91603764 153.28935062 85.68185154 153.30738926 86.47087193 C153.2864954 91.66585441 152.23255529 94.55538642 148.8285532 98.68928623 C144.25643499 102.46625345 143.07456739 102.68928623 136.8285532 102.68928623 C136.8285532 118.52928623 136.8285532 134.36928623 136.8285532 150.68928623 C163.2285532 150.68928623 189.6285532 150.68928623 216.8285532 150.68928623 C216.8285532 137.48928623 216.8285532 124.28928623 216.8285532 110.68928623 C221.5428445 98.90355797 225.50001596 92.95915393 236.8285532 87.68928623 C245.45215541 84.72874248 254.56016671 84.92148311 262.8910532 88.68928623 C272.85822879 94.32104555 280.76256676 103.47054798 288.7985239 111.49812412 C289.85572643 112.55068401 290.91312049 113.60305154 291.97068882 114.65524387 C294.81166968 117.48325115 297.64943973 120.3144575 300.48617673 123.14672112 C302.26310662 124.92070008 304.04061352 126.69409894 305.81828976 128.46732998 C311.39430255 134.0297172 316.96834633 139.59406623 322.539491 145.16132933 C328.94629652 151.56364436 335.359611 157.95934425 341.7786029 164.34944063 C346.76080349 169.30999673 351.73719712 174.27632994 356.70925492 179.24705213 C359.67070852 182.20746114 362.63450755 185.1654242 365.60439587 188.11737347 C368.39444404 190.89088944 371.17717782 193.67154417 373.9545927 196.45770931 C374.97062552 197.47450932 375.98919541 198.48878193 377.01056385 199.50022221 C386.2099979 208.61549484 393.0626904 216.47280247 393.2035532 229.93928623 C392.92442943 246.71955068 382.38313041 256.43796387 371.09491062 267.71345615 C370.02597837 268.78838611 368.95745251 269.86372032 367.88929844 270.93942356 C365.00965878 273.83659775 362.12368922 276.72738264 359.23591113 279.61644244 C357.42741188 281.42637027 355.62034711 283.2377178 353.81377697 285.04957104 C347.49846517 291.38333707 341.17805802 297.71196583 334.85272312 304.03572178 C328.97629885 309.91094386 323.11113224 315.79724019 317.25111216 321.68882006 C312.200703 326.76544775 307.14254405 331.8342659 302.07837087 336.89716321 C299.06205059 339.91297578 296.04885501 342.93174956 293.04344845 345.95844173 C290.2164043 348.80496413 287.37976171 351.64157007 284.53573513 354.47112179 C283.49956094 355.5052191 282.46672596 356.54267606 281.4376955 357.58388233 C271.9413561 367.18518515 262.58816619 374.91774216 248.5785532 375.06428623 C239.47514442 374.92148766 232.18037694 372.80342108 225.4301157 366.53303623 C211.13791441 350.07957524 216.8285532 334.28784195 216.8285532 310.68928623 C190.4285532 310.68928623 164.0285532 310.68928623 136.8285532 310.68928623 C136.8285532 326.52928623 136.8285532 342.36928623 136.8285532 358.68928623 C138.8085532 358.68928623 140.7885532 358.68928623 142.8285532 358.68928623 C147.65348704 361.19825183 150.22223449 363.9507434 152.8285532 368.68928623 C153.21297083 371.58819407 153.39125561 374.0927605 153.3598032 376.98225498 C153.3636301 377.76893055 153.36745701 378.55560612 153.37139988 379.36612034 C153.37411168 381.02602008 153.36680178 382.68596308 153.35003757 384.34578037 C153.32875884 386.85256015 153.34978686 389.35642713 153.3754282 391.86311436 C153.39134907 400.84215032 152.88692997 408.48266187 148.8285532 416.68928623 C148.34773289 417.68444248 147.86691257 418.67959873 147.37152195 419.70491123 C139.04035286 433.4381352 128.1912408 439.64220017 112.8285532 443.68928623 C108.07333027 444.67740341 103.29691331 445.43595561 98.49554539 446.16291904 C97.1122377 446.37946513 95.72905737 446.59682606 94.345994 446.8149271 C90.630178 447.39821616 86.91258754 447.96929575 83.19440842 448.53730202 C80.07067644 449.01564418 76.94789541 449.50004348 73.82508588 449.98436522 C66.44656487 451.12858358 59.06655097 452.26277046 51.68548679 453.39045811 C44.11656838 454.54701461 36.55032265 455.7199682 28.9852159 456.9011786 C22.44859218 457.9212291 15.91046057 458.93117584 9.37105584 459.93324256 C5.48368893 460.52900509 1.59695591 461.12827549 -2.28836727 461.73723698 C-49.09958656 469.06064216 -49.09958656 469.06064216 -65.1089468 458.75178623 C-66.47600426 457.74828139 -67.83165837 456.72891839 -69.1714468 455.68928623 C-70.7183218 454.57553623 -70.7183218 454.57553623 -72.2964468 453.43928623 C-81.64650833 444.49574912 -87.24458881 432.93266562 -87.8006525 419.9727335 C-87.84619853 417.06620085 -87.82903772 414.16237407 -87.80636501 411.25569248 C-87.8121374 409.62855759 -87.82008597 408.00142923 -87.83000124 406.37431431 C-87.85074462 401.93638345 -87.84061686 397.49899482 -87.82507014 393.06106281 C-87.81370896 388.26205236 -87.83124289 383.46313202 -87.84496975 378.66413975 C-87.86715597 369.2760741 -87.86242156 359.88820879 -87.84790654 350.50013542 C-87.83659611 342.867531 -87.83509121 335.23498257 -87.84052563 327.60237217 C-87.84129179 326.51439461 -87.84205796 325.42641705 -87.84284734 324.30547047 C-87.84444603 322.0949869 -87.8460671 319.88450335 -87.8477103 317.67401981 C-87.86195428 296.96587745 -87.84559626 276.25784591 -87.81870846 255.54972172 C-87.79637094 237.79670858 -87.80025145 220.04385893 -87.82330227 202.29084873 C-87.85008412 181.65477401 -87.86058111 161.01879632 -87.84524095 140.38270664 C-87.84364827 138.18053787 -87.84207642 135.97836909 -87.84052563 133.77620029 C-87.83975425 132.69280495 -87.83898287 131.6094096 -87.83818812 130.49318409 C-87.83387828 122.87330634 -87.84114222 115.25349035 -87.85292339 107.63362217 C-87.86697342 98.34241467 -87.86309582 89.05141827 -87.83651967 79.76023483 C-87.8234152 75.02334258 -87.81817143 70.28680179 -87.83476543 65.54991245 C-87.84974812 61.20718003 -87.84134091 56.86512231 -87.81487767 52.52245045 C-87.80932774 50.95802184 -87.81205405 49.39353533 -87.82425661 47.82914448 C-87.93131976 32.95343381 -84.15767008 20.93730668 -74.1714468 9.68928623 C-52.95681695 -10.52971117 -26.0995264 -4.09067812 0 0 Z " fill="#D4E9FD" transform="translate(103.17144680023193,25.31071376800537)"/>
<path d="M0 0 C6.38908612 5.81892307 12.57270899 11.82024607 18.685956 17.92711735 C19.74315852 18.97967723 20.80055258 20.03204477 21.85812092 21.0842371 C24.69910178 23.91224438 27.53687182 26.74345073 30.37360883 29.57571435 C32.15053872 31.34969331 33.92804562 33.12309217 35.70572186 34.8963232 C41.28173465 40.45871042 46.85577843 46.02305946 52.4269231 51.59032255 C58.83372862 57.99263758 65.2470431 64.38833748 71.666035 70.77843386 C76.64823559 75.73898996 81.62462922 80.70532317 86.59668702 85.67604536 C89.55814061 88.63645436 92.52193965 91.59441742 95.49182796 94.54636669 C98.28187614 97.31988266 101.06460992 100.1005374 103.8420248 102.88670254 C104.85805762 103.90350254 105.87662751 104.91777515 106.89799595 105.92921543 C116.09743 115.04448807 122.9501225 122.9017957 123.0909853 136.36827946 C122.81186153 153.1485439 112.27056251 162.86695709 100.98234272 174.14244938 C99.91341047 175.21737934 98.84488461 176.29271355 97.77673054 177.36841679 C94.89709088 180.26559097 92.01112132 183.15637587 89.12334323 186.04543567 C87.31484398 187.85536349 85.50777921 189.66671102 83.70120907 191.47856426 C77.38589727 197.8123303 71.06549012 204.14095905 64.74015522 210.464715 C58.86373095 216.33993708 52.99856434 222.22623342 47.13854426 228.11781329 C42.0881351 233.19444097 37.02997615 238.26325913 31.96580297 243.32615644 C28.94948268 246.34196901 25.93628711 249.36074279 22.93088055 252.38743496 C20.1038364 255.23395736 17.26719381 258.0705633 14.42316723 260.90011501 C13.38699304 261.93421232 12.35415806 262.97166928 11.3251276 264.01287556 C1.82878819 273.61417838 -7.52440171 281.34673539 -21.5340147 281.49327946 C-30.63742348 281.35048089 -37.93219096 279.23241431 -44.6824522 272.96202946 C-49.74019048 267.13946246 -53.4222418 260.79804338 -53.39754009 252.99230289 C-53.3974268 251.79151096 -53.3974268 251.79151096 -53.39731121 250.56646061 C-53.39214993 249.71215458 -53.38698864 248.85784855 -53.38167095 247.97765446 C-53.380256 247.09547245 -53.37884106 246.21329044 -53.37738323 245.30437565 C-53.37179472 242.4923088 -53.35924431 239.68032216 -53.3465147 236.86827946 C-53.34149822 234.95942644 -53.33693557 233.05057218 -53.33284283 231.14171696 C-53.32182904 226.46720698 -53.30457228 221.79275681 -53.2840147 217.11827946 C-54.3495306 217.12494129 -55.4150465 217.13160313 -56.51285076 217.13846684 C-66.58995038 217.1994736 -76.66701217 217.24434567 -86.74425507 217.27371597 C-91.92417231 217.2893235 -97.1039396 217.31047144 -102.28377056 217.34459782 C-107.28937203 217.37736721 -112.29482991 217.39516936 -117.30053043 217.40291119 C-119.20335618 217.40842328 -121.10617473 217.4191865 -123.00893879 217.43546963 C-140.14781252 217.576208 -154.37370419 215.74328566 -167.5340147 203.61827946 C-179.95723701 190.50268011 -181.60144407 175.03233052 -181.58479595 157.78234196 C-181.58869066 156.09519694 -181.5930269 154.40805289 -181.59778118 152.72091007 C-181.60521341 149.19578203 -181.60497404 145.67075419 -181.59968853 142.14562321 C-181.59389883 137.65494674 -181.6108274 133.16468338 -181.6340332 128.67407513 C-181.64885056 125.19252517 -181.64963141 121.71107287 -181.64652348 118.22949696 C-181.6470327 116.57509258 -181.65219457 114.92068216 -181.6623354 113.26630878 C-181.75019282 96.9307132 -179.2338312 83.2215931 -167.7215147 70.86827946 C-157.23665154 60.95187273 -145.45499099 56.76071061 -131.27595806 56.89122868 C-130.00114574 56.8907906 -130.00114574 56.8907906 -128.70057964 56.89034367 C-125.92489766 56.89172369 -123.14949285 56.90722157 -120.37385845 56.92296696 C-118.43616158 56.92670182 -116.4984628 56.92954655 -114.56076336 56.9315424 C-109.4858345 56.9391416 -104.41102195 56.95875786 -99.33613873 56.98095036 C-94.14755609 57.00148913 -88.95895448 57.01056122 -83.77034283 57.02062321 C-73.60818263 57.04200754 -63.44610838 57.07609821 -53.2840147 57.11827946 C-53.3154356 55.37925358 -53.3154356 55.37925358 -53.34749126 53.60509586 C-53.42043701 49.26277589 -53.46601097 44.92050896 -53.50374126 40.57775211 C-53.52373333 38.70591436 -53.55093639 36.83413808 -53.58577251 34.96251774 C-54.01687797 11.18832006 -54.01687797 11.18832006 -45.1043272 1.71593571 C-31.8998533 -9.87339869 -13.85510502 -11.41474077 0 0 Z " fill="#000000" transform="translate(373.28401470184326,118.88172054290771)"/>
<path d="M0 0 C3.92038403 0.61216372 7.84278636 1.21114529 11.76489353 1.81215 C18.34237269 2.8221379 24.91819861 3.84237267 31.49310398 4.86897373 C39.06024341 6.05037903 46.62972808 7.21568961 54.20068049 8.3723886 C61.53356415 9.49307374 68.86468833 10.6248909 76.19507694 11.76177311 C79.29307058 12.24207172 82.39160376 12.71863029 85.49065495 13.1920557 C89.14645179 13.75106993 92.80058919 14.31994402 96.4537344 14.89602375 C98.40982104 15.20223394 100.36736948 15.49906175 102.32496738 15.79545689 C118.79859183 18.41975075 132.69310152 22.84020275 143.81683445 35.86116123 C150.04537178 44.61739623 152.96513157 53.36330061 153.06683445 63.96272373 C153.0749062 64.76408756 153.08297794 65.56545139 153.09129429 66.39109898 C153.10509914 68.08389742 153.11583733 69.77672328 153.12371922 71.46955967 C153.13525184 73.19587994 153.15572402 74.9221642 153.18524265 76.64827061 C153.22799098 79.14916687 153.24409603 81.64900715 153.25433445 84.15022373 C153.27184254 84.91603764 153.28935062 85.68185154 153.30738926 86.47087193 C153.28647498 91.67093315 152.2151611 94.53886049 148.8285532 98.68928623 C145.12865847 102.11845696 142.2493183 102.98898372 137.3285532 103.18928623 C132.41065218 102.99577317 129.56294303 102.05934534 125.8285532 98.68928623 C121.51073072 93.90467213 120.71439028 90.65199836 120.65277195 84.29866123 C120.62892429 83.03151279 120.60507664 81.76436436 120.58050632 80.45881748 C120.53403006 77.79439515 120.50640945 75.13159399 120.48675632 72.46662998 C120.3859123 62.82032354 120.3859123 62.82032354 115.8285532 54.68928623 C111.11845736 51.47533849 105.85025116 50.67073891 100.3285532 49.68928623 C99.40711521 49.51977451 98.48567722 49.35026279 97.53631687 49.17561436 C89.24369017 47.68714017 80.91501892 46.55218999 72.5629282 45.45881748 C63.26521433 44.23216837 54.00687533 42.74069363 44.74115086 41.29573154 C40.34821689 40.614835 35.95375974 39.94435561 31.55902195 39.27522373 C29.07422068 38.89609359 26.58945441 38.51673514 24.10470676 38.13725376 C22.42124597 37.88037331 20.73771318 37.62396424 19.05410862 37.36802769 C10.44051871 36.05730708 1.83644546 34.7202707 -6.7417593 33.19319248 C-27.83246083 28.19135816 -27.83246083 28.19135816 -48.4214468 31.34944248 C-52.28419543 34.63607093 -53.94934483 37.81937336 -54.54979563 42.87466705 C-54.55136683 44.02847747 -54.55293803 45.1822879 -54.55455685 46.37106228 C-54.56199612 47.34528984 -54.56199612 47.34528984 -54.56958568 48.33919877 C-54.58252582 50.51272538 -54.57416259 52.68563606 -54.56585598 54.85917759 C-54.57074565 56.43433255 -54.57693581 58.00948391 -54.58431387 59.58462918 C-54.60072691 63.91108327 -54.5983927 68.2373553 -54.5929389 72.56382966 C-54.59027039 77.23061028 -54.60479713 81.89734217 -54.61703396 86.56410313 C-54.63809761 95.70608653 -54.64262828 104.84800652 -54.64084607 113.99001132 C-54.63953893 121.42020476 -54.64334013 128.85037841 -54.65077114 136.28056812 C-54.65287031 138.42005988 -54.65496792 140.55955163 -54.65706396 142.69904339 C-54.65862925 144.29632408 -54.65862925 144.29632408 -54.66022617 145.92587306 C-54.67913226 166.06915908 -54.67807718 186.21240869 -54.67125684 206.35569991 C-54.66568092 224.78603802 -54.68650826 243.21623715 -54.71961731 261.64654277 C-54.75334454 280.56771098 -54.76852386 299.48881258 -54.76390028 318.41001141 C-54.76165464 329.03405726 -54.76691268 339.65797463 -54.79179287 350.28199482 C-54.81279345 359.32646502 -54.81641029 368.37073631 -54.79749328 377.41521464 C-54.78832785 382.02993788 -54.78721708 386.64429011 -54.80784893 391.25898457 C-54.82653203 395.48452991 -54.82208571 399.70939972 -54.79930311 403.93491913 C-54.79511059 405.46246384 -54.79933939 406.99006006 -54.81289905 408.51755033 C-54.93443421 418.96398873 -54.93443421 418.96398873 -50.6339736 428.28621876 C-46.39213196 432.35560746 -41.67051423 432.13559293 -36.05157375 432.12092686 C-27.13823205 431.90033922 -18.46838711 430.24207212 -9.70909023 428.68946934 C-9.03151165 428.5695261 -8.35393307 428.44958286 -7.6558218 428.32600498 C-6.95032696 428.20106663 -6.24483212 428.07612827 -5.51795864 427.94740391 C5.92104048 425.94573859 17.41169453 424.25305621 28.8910532 422.50178623 C31.16621821 422.15359997 33.44136505 421.80529493 35.71649265 421.45686436 C39.9458653 420.80938158 44.17545305 420.16333295 48.40521336 419.51838779 C51.57225153 419.03512697 54.73883169 418.5493413 57.90423679 418.05549717 C63.50516381 417.18243325 69.10650369 416.37182033 74.72894382 415.65022373 C83.30148655 414.54242708 91.82738306 413.25584462 100.3285532 411.68928623 C101.19415867 411.5354044 102.05976414 411.38152256 102.95160007 411.22297764 C110.81049211 409.85541937 110.81049211 409.85541937 117.0629282 405.23079014 C121.01383815 398.76708754 120.35053938 391.39301304 120.3285532 384.06428623 C120.28207098 368.47724828 120.28207098 368.47724828 124.8285532 363.68928623 C130.07469356 359.06768639 133.17622697 358.33087651 140.06683445 358.41194248 C143.96274356 358.80318654 145.97477495 360.04432103 148.8285532 362.68928623 C152.62345681 367.38195113 153.42385989 371.09744473 153.3598032 376.98225498 C153.3636301 377.76893055 153.36745701 378.55560612 153.37139988 379.36612034 C153.37411168 381.02602008 153.36680178 382.68596308 153.35003757 384.34578037 C153.32875884 386.85256015 153.34978686 389.35642713 153.3754282 391.86311436 C153.39134907 400.84215032 152.88692997 408.48266187 148.8285532 416.68928623 C148.34773289 417.68444248 147.86691257 418.67959873 147.37152195 419.70491123 C139.04035286 433.4381352 128.1912408 439.64220017 112.8285532 443.68928623 C108.07333027 444.67740341 103.29691331 445.43595561 98.49554539 446.16291904 C97.1122377 446.37946513 95.72905737 446.59682606 94.345994 446.8149271 C90.630178 447.39821616 86.91258754 447.96929575 83.19440842 448.53730202 C80.07067644 449.01564418 76.94789541 449.50004348 73.82508588 449.98436522 C66.44656487 451.12858358 59.06655097 452.26277046 51.68548679 453.39045811 C44.11656838 454.54701461 36.55032265 455.7199682 28.9852159 456.9011786 C22.44859218 457.9212291 15.91046057 458.93117584 9.37105584 459.93324256 C5.48368893 460.52900509 1.59695591 461.12827549 -2.28836727 461.73723698 C-49.09958656 469.06064216 -49.09958656 469.06064216 -65.1089468 458.75178623 C-66.47600426 457.74828139 -67.83165837 456.72891839 -69.1714468 455.68928623 C-70.7183218 454.57553623 -70.7183218 454.57553623 -72.2964468 453.43928623 C-81.64650833 444.49574912 -87.24458881 432.93266562 -87.8006525 419.9727335 C-87.84619853 417.06620085 -87.82903772 414.16237407 -87.80636501 411.25569248 C-87.8121374 409.62855759 -87.82008597 408.00142923 -87.83000124 406.37431431 C-87.85074462 401.93638345 -87.84061686 397.49899482 -87.82507014 393.06106281 C-87.81370896 388.26205236 -87.83124289 383.46313202 -87.84496975 378.66413975 C-87.86715597 369.2760741 -87.86242156 359.88820879 -87.84790654 350.50013542 C-87.83659611 342.867531 -87.83509121 335.23498257 -87.84052563 327.60237217 C-87.84129179 326.51439461 -87.84205796 325.42641705 -87.84284734 324.30547047 C-87.84444603 322.0949869 -87.8460671 319.88450335 -87.8477103 317.67401981 C-87.86195428 296.96587745 -87.84559626 276.25784591 -87.81870846 255.54972172 C-87.79637094 237.79670858 -87.80025145 220.04385893 -87.82330227 202.29084873 C-87.85008412 181.65477401 -87.86058111 161.01879632 -87.84524095 140.38270664 C-87.84364827 138.18053787 -87.84207642 135.97836909 -87.84052563 133.77620029 C-87.83975425 132.69280495 -87.83898287 131.6094096 -87.83818812 130.49318409 C-87.83387828 122.87330634 -87.84114222 115.25349035 -87.85292339 107.63362217 C-87.86697342 98.34241467 -87.86309582 89.05141827 -87.83651967 79.76023483 C-87.8234152 75.02334258 -87.81817143 70.28680179 -87.83476543 65.54991245 C-87.84974812 61.20718003 -87.84134091 56.86512231 -87.81487767 52.52245045 C-87.80932774 50.95802184 -87.81205405 49.39353533 -87.82425661 47.82914448 C-87.93131976 32.95343381 -84.15767008 20.93730668 -74.1714468 9.68928623 C-52.95681695 -10.52971117 -26.0995264 -4.09067812 0 0 Z " fill="#000000" transform="translate(103.17144680023193,25.31071376800537)"/>
<path d="M0 0 C6.0883273 5.03743232 11.64959001 10.52066425 17.21801758 16.12036133 C18.23034656 17.13461279 19.24290589 18.14863436 20.25567627 19.16244507 C22.42328123 21.33319381 24.58932722 23.50548171 26.75415993 25.67899513 C30.17600401 29.11442262 33.60171397 32.54597779 37.02799988 35.97697449 C44.2924753 43.25251637 51.55269315 50.5323001 58.8125 57.8125 C66.66826117 65.69029017 74.52475827 73.5673382 82.38612098 81.43953913 C85.79402482 84.85243142 89.19947454 88.26774828 92.60307944 91.68492758 C94.71465749 93.80394452 96.82828693 95.92090597 98.94248962 98.03730392 C99.92458744 99.0212794 100.90581765 100.00612168 101.88612938 100.9918766 C103.22056156 102.33348687 104.55834537 103.671761 105.89631653 105.00984192 C106.64493863 105.76068463 107.39356073 106.51152735 108.16486835 107.28512287 C109.89787524 109.06724129 109.89787524 109.06724129 112 110 C110.47832481 113.58310107 108.37012987 115.87897391 105.62815857 118.61907959 C104.70971161 119.54172104 103.79126465 120.46436249 102.84498596 121.41496277 C101.82440663 122.43005901 100.80372762 123.44505505 99.78295898 124.45996094 C98.70998602 125.534007 97.6374462 126.60848591 96.56530762 127.68336487 C93.65472995 130.59878815 90.73794359 133.50792611 87.81987262 136.41584682 C84.77011029 139.45682883 81.72561794 142.50307841 78.68043518 145.54864502 C73.56843654 150.65970733 68.45258001 155.76688206 63.33422852 160.87158203 C57.4084871 166.78157727 51.48800942 172.69680376 45.5705027 178.6150434 C39.8843824 184.30177294 34.1954155 189.98564525 28.50483894 195.66791534 C26.07942324 198.08979179 23.65486659 200.51252354 21.23095512 202.93590546 C18.38108402 205.78477574 15.52868956 208.63109516 12.67427826 211.47541618 C11.62405165 212.52270996 10.57468189 213.57086375 9.52620888 214.6199131 C8.10140206 216.0452069 6.67323091 217.46713521 5.24485779 218.88885498 C4.04443171 220.08676729 4.04443171 220.08676729 2.8197546 221.30887985 C1 223 1 223 0 223 C-0.0093457 221.86570557 -0.01869141 220.73141113 -0.02832031 219.56274414 C-0.06845952 215.31870525 -0.13428266 211.07537316 -0.20751953 206.83178711 C-0.23559124 205.00180197 -0.25687384 203.17169869 -0.27099609 201.34155273 C-0.2926184 198.69714471 -0.33936347 196.05413664 -0.390625 193.41015625 C-0.39185364 192.60353043 -0.39308228 191.7969046 -0.39434814 190.96583557 C-0.60425076 182.66144266 -3.93770096 175.39129054 -9.01953125 168.859375 C-16.12951132 162.18412744 -25.17747776 159.85215788 -34.59887695 159.8581543 C-35.4772522 159.85467987 -36.35562744 159.85120544 -37.26062012 159.84762573 C-39.16928283 159.84027132 -41.07795407 159.83492426 -42.98662758 159.83133507 C-46.0088304 159.82417003 -49.03087083 159.80850309 -52.05302429 159.78999329 C-60.64624811 159.73752559 -69.23938311 159.68954596 -77.83276367 159.67407227 C-83.08836218 159.66398791 -88.34355234 159.63465178 -93.59898949 159.59275246 C-95.60079039 159.58044416 -97.60264897 159.57532088 -99.60448647 159.57755089 C-102.40774701 159.57990522 -105.20983716 159.55772743 -108.01293945 159.5300293 C-108.83757187 159.53663071 -109.66220428 159.54323212 -110.51182556 159.55003357 C-115.80392414 159.46430073 -118.78315512 158.47267087 -123 155 C-127.48450035 150.0306888 -128.12593487 146.65240523 -128.17700195 140.0534668 C-128.18357315 139.35065582 -128.19014435 138.64784485 -128.19691467 137.92373657 C-128.21661792 135.59889617 -128.22830345 133.27412027 -128.23828125 130.94921875 C-128.24235678 130.15408182 -128.2464323 129.35894489 -128.25063133 128.53971291 C-128.27147919 124.3312468 -128.28578656 120.12281319 -128.29516602 115.91430664 C-128.30622911 111.57310846 -128.3406311 107.23242303 -128.38033772 102.89140606 C-128.40651225 99.54817263 -128.41485856 96.20506127 -128.41844749 92.86173439 C-128.42331115 91.26178333 -128.43491894 89.66183764 -128.45348549 88.06198692 C-128.47789656 85.81915272 -128.47690917 83.57764383 -128.4699707 81.3347168 C-128.47583694 80.06025192 -128.48170319 78.78578705 -128.48774719 77.47270203 C-127.74666808 72.19630684 -125.30579646 69.1503445 -121.375 65.6875 C-117.10932577 62.65662621 -113.6987427 62.86106942 -108.60986328 62.87402344 C-107.74127182 62.8721553 -106.87268036 62.87028717 -105.97776794 62.86836243 C-104.086013 62.86435176 -102.1942532 62.86228298 -100.30249405 62.86190033 C-96.26956746 62.85848522 -92.23680212 62.83711386 -88.20393181 62.81666946 C-80.69420257 62.778688 -73.18464089 62.74737432 -65.67480469 62.74951172 C-60.45269489 62.7503028 -55.23116948 62.72675897 -50.00921249 62.6876297 C-48.0263215 62.67722127 -46.0433626 62.67560732 -44.06045914 62.68328094 C-31.10786042 62.72836774 -21.8881919 61.82056172 -10.625 54.9375 C-3.86943959 47.3777062 -0.89297285 38.55882012 -0.68359375 28.61328125 C-0.6524221 27.38776802 -0.6524221 27.38776802 -0.62062073 26.13749695 C-0.55526921 23.52924966 -0.49630727 20.92090225 -0.4375 18.3125 C-0.39430108 16.54360946 -0.35068635 14.77472903 -0.30664062 13.00585938 C-0.19960257 8.67067537 -0.09829456 4.33539071 0 0 Z " fill="#FA878F" transform="translate(352,145)"/>
</svg>
